<svg xmlns="http://www.w3.org/2000/svg" width="1922" height="961" viewBox="0 0 1922 961">
  <defs>
    <style>
      .cls-1 {
        fill: #333;
      }

      .cls-2 {
        fill: #eaf1f8;
      }

      .cls-3 {
        fill: #fff;
      }
    </style>
  </defs>
  <g id="Group_3716" data-name="Group 3716" transform="translate(-905 -568)">
    <g id="Group_3715" data-name="Group 3715">
      <rect id="Rectangle_1369" data-name="Rectangle 1369" class="cls-1" width="961" height="961" transform="translate(905 568)"/>
      <rect id="Rectangle_1370" data-name="Rectangle 1370" class="cls-2" width="961" height="961" transform="translate(1866 568)"/>
      <path id="Path_151" data-name="Path 151" class="cls-3" d="M133.648,0V-410.24H7.051v-67.305h326.91v67.305h-125V0ZM506.39,7.692q-45.19,0-83.49-16.826a191.926,191.926,0,0,1-65.382-46.473,184.667,184.667,0,0,1-39.582-67.786l63.779-26.922q17.307,43.909,50.8,67.786t77.08,23.877q25.64,0,44.71-8.173T583.951-89.58q10.576-14.583,10.576-34.133,0-25.96-14.743-41.5t-43.588-24.2l-89.74-28.2q-53.844-16.666-81.888-51.12t-28.044-80.606q0-40.063,19.711-70.67t54.645-47.915q34.935-17.307,79.8-17.307,42.947,0,78.362,15.224t60.575,41.5a163.759,163.759,0,0,1,37.018,60.9l-62.818,27.242Q589.4-378.19,559.753-398.542t-68.747-20.352q-23.717,0-41.825,8.013t-28.044,22.916q-9.935,14.9-9.935,34.774a62.825,62.825,0,0,0,14.743,41.024q14.743,17.948,44.87,27.242l83.65,25.96q57.049,17.628,85.734,50t28.685,80.125q0,40.063-20.672,70.831T591-9.775Q554.465,7.692,506.39,7.692Z" transform="translate(1115 1434)"/>
      <path id="Path_150" data-name="Path 150" class="cls-1" d="M49.357,0V-477.545h156.4q74.256,0,129.111,29.967t84.983,83.651q30.127,53.684,30.127,124.985,0,70.68-30.127,124.685T334.872-30.127Q280.017,0,205.761,0Zm75.318-67.305h82.369q50.839,0,88.077-21.153t57.75-59.753q20.512-38.6,20.512-91.022t-20.662-90.7q-20.662-38.28-57.85-59.292T207.043-410.24H124.674ZM472.737,0V-477.545h75.318v410.24H754.777V0Z" transform="translate(1886 1434)"/>
    </g>
  </g>
</svg>
