<?xml version="1.0" encoding="utf-8"?>
<!-- Generator: Adobe Illustrator 21.0.0, SVG Export Plug-In . SVG Version: 6.00 Build 0)  -->
<svg version="1.1" id="Layer_1" xmlns="http://www.w3.org/2000/svg" xmlns:xlink="http://www.w3.org/1999/xlink" x="0px" y="0px"
	 viewBox="0 0 512 512" style="enable-background:new 0 0 512 512;" xml:space="preserve">
<g>
	<path fill="#8b8b8b" d="M172,24.9c-15.5-1-30.7,1.7-44,9.4C110.2,44.5,98.4,62,92.1,82.2s-7.8,43.4-5.5,68.7c0.2,2.6,0.7,5.2,1,7.9
		c-2.4,1-5,2-7.3,3.1c-23.1,10.7-42.5,23.5-56.8,39.1S0,235.5,0,256s9.2,39.5,23.5,55.1c14.3,15.6,33.6,28.4,56.8,39.1
		c2.3,1.1,4.9,2,7.3,3.1c-0.3,2.6-0.8,5.3-1,7.9c-2.3,25.4-0.8,48.6,5.5,68.7c6.3,20.1,18.2,37.6,35.9,47.9s38.8,11.8,59.4,7.2
		s41.5-14.9,62.3-29.6c2.1-1.5,4.2-3.2,6.3-4.8c2.1,1.6,4.2,3.3,6.3,4.8c20.8,14.7,41.6,25,62.3,29.6s41.7,3.1,59.4-7.2
		s29.6-27.8,35.9-47.9c6.3-20.1,7.8-43.4,5.5-68.7c-0.2-2.6-0.7-5.2-1-7.9c2.4-1,5-2,7.3-3.1c23.1-10.7,42.5-23.5,56.8-39.1
		c14.3-15.6,23.5-34.6,23.5-55.1s-9.2-39.5-23.5-55.1s-33.6-28.4-56.8-39.1c-2.3-1.1-4.9-2-7.3-3.1c0.3-2.6,0.8-5.3,1-7.9
		c2.3-25.4,0.8-48.6-5.5-68.7C413.6,62,401.8,44.5,384,34.3s-38.8-11.8-59.4-7.2S283.1,42,262.3,56.7c-2.1,1.5-4.2,3.2-6.3,4.8
		c-2.1-1.6-4.2-3.3-6.3-4.8c-20.8-14.7-41.6-25-62.3-29.6C182.3,26,177.1,25.2,172,24.9z M169.6,61.3c3.1,0.2,6.4,0.8,10,1.5
		c13.8,3.1,30.4,10.8,47.8,23c-14.5,13.8-28.8,29.5-42.5,47c-22,3-42.7,7.6-61.9,13.3c-1.8-21.2-0.3-39.4,4-52.9
		c4.4-13.8,10.9-22.3,19.4-27.2C152.7,62.3,160.2,60.6,169.6,61.3z M342.4,61.3c9.3-0.7,16.9,1,23.3,4.7c8.5,4.9,15,13.4,19.4,27.2
		c4.3,13.5,5.8,31.7,4,52.9c-19.2-5.7-39.9-10.2-61.9-13.3c-13.7-17.6-28-33.2-42.5-47c17.5-12.1,34-19.9,47.8-23
		C336,62,339.3,61.5,342.4,61.3z M256,109c6.4,5.9,12.8,12.6,19.3,19.5c-6.4-0.2-12.8-0.4-19.3-0.4s-12.9,0.2-19.3,0.4
		C243.2,121.5,249.6,114.9,256,109z M256,164.6c17.6,0,34.7,1,51.2,2.8c9.7,13.4,19.2,27.7,28,42.9c8.8,15.3,16.5,30.6,23.2,45.7
		c-6.7,15.1-14.4,30.4-23.2,45.7c-8.8,15.3-18.3,29.6-28,42.9c-16.4,1.8-33.5,2.8-51.2,2.8s-34.7-1-51.2-2.8
		c-9.7-13.4-19.2-27.7-28-42.9c-8.8-15.3-16.5-30.6-23.2-45.7c6.7-15.1,14.4-30.4,23.2-45.7s18.3-29.6,28-42.9
		C221.3,165.6,238.4,164.6,256,164.6z M155.1,175.5c-3.4,5.4-6.8,10.8-10,16.5s-6.3,11.3-9.3,16.9c-2.8-9-5.3-17.9-7.2-26.4
		C137,179.9,146,177.6,155.1,175.5z M356.9,175.5c9.2,2.1,18.1,4.4,26.5,7c-1.9,8.5-4.4,17.4-7.2,26.4c-3-5.6-6-11.3-9.3-16.9
		S360.2,180.9,356.9,175.5z M94.3,195.7c4.7,19.5,11.1,39.7,19.5,60.3c-8.4,20.6-14.8,40.8-19.5,60.3c-19.2-9-34.2-19.5-43.8-29.9
		c-9.8-10.7-13.9-20.6-13.9-30.4s4.1-19.7,13.9-30.4C60,215.2,75,204.8,94.3,195.7z M417.8,195.7c19.2,9,34.2,19.5,43.8,29.9
		c9.8,10.7,13.9,20.6,13.9,30.4s-4.1,19.7-13.9,30.4c-9.6,10.4-24.6,20.9-43.8,29.9c-4.7-19.5-11.1-39.7-19.5-60.3
		C406.6,235.4,413.1,215.2,417.8,195.7z M256,201.1c-30.1,0-54.9,24.8-54.9,54.9s24.8,54.9,54.9,54.9s54.9-24.8,54.9-54.9
		S286.1,201.1,256,201.1z M256,237.7c10.3,0,18.3,8,18.3,18.3s-8,18.3-18.3,18.3s-18.3-8-18.3-18.3S245.7,237.7,256,237.7z
		 M135.9,303.1c3,5.6,6,11.3,9.3,16.9s6.6,11.1,10,16.5c-9.2-2.1-18.1-4.4-26.5-7C130.6,321,133.1,312.1,135.9,303.1z M376.1,303.1
		c2.8,9,5.3,17.9,7.2,26.4c-8.4,2.6-17.3,4.9-26.5,7c3.4-5.4,6.8-10.8,10-16.5S373.1,308.7,376.1,303.1z M122.9,365.9
		c19.2,5.7,39.9,10.2,61.9,13.3c13.7,17.6,28,33.2,42.5,47c-17.5,12.1-34,19.9-47.8,23c-14.1,3.1-24.8,1.8-33.3-3.1
		c-8.5-4.9-15-13.4-19.4-27.2C122.7,405.3,121.1,387.1,122.9,365.9z M389.1,365.9c1.8,21.2,0.3,39.4-4,52.9
		c-4.4,13.8-10.9,22.3-19.4,27.2s-19.1,6.3-33.3,3.1c-13.8-3.1-30.4-10.8-47.8-23c14.5-13.8,28.8-29.5,42.5-47
		C349.2,376.1,369.9,371.6,389.1,365.9z M236.8,383.6c6.4,0.2,12.8,0.4,19.3,0.4s12.9-0.2,19.3-0.4c-6.4,6.9-12.8,13.5-19.3,19.5
		C249.6,397.1,243.2,390.5,236.8,383.6z"/>
</g>
</svg>
